<?xml version="1.0" encoding="utf-8"?>
<svg viewBox="0 0 195 34" width="195" height="34" xmlns="http://www.w3.org/2000/svg" xmlns:bx="https://boxy-svg.com">
  <g transform="matrix(1, 0, 0, 1, -1.0000000000000004, -3.1016499996185303)">
    <ellipse transform="matrix(1, 0.00000998, 0, 1.00000011, -130.95652771, -128.8998701)" cx="163" cy="147" rx="13" ry="13" style="fill: none; stroke-width: 3; stroke: rgb(0, 0, 0); fill-opacity: 0.9; stroke-opacity: 0.5;" bx:origin="0 0"/>
    <path d="M 47.44 31 L 52.81 4.1 L 56 4.1 L 50.63 31 L 47.44 31 ZM 57.772 31 L 63.142 4.1 L 66.952 4.1 L 69.292 18.62 L 70.192 24.19 L 70.352 24.19 L 73.222 18.62 L 81.222 4.1 L 85.032 4.1 L 79.662 31 L 76.582 31 L 79.702 15.83 C 79.9487 14.5967 80.2486 13.2633 80.602 11.83 C 80.9553 10.3967 81.2987 9.0933 81.632 7.92 L 81.462 7.92 L 78.222 13.9 L 70.312 28.17 L 68.512 28.17 L 66.012 13.9 L 65.102 7.92 L 64.942 7.92 C 64.7753 9.1467 64.5986 10.4633 64.412 11.87 C 64.2187 13.2767 64.012 14.5967 63.792 15.83 L 60.762 31 L 57.772 31 ZM 86.677 31 L 92.047 4.1 L 99.627 4.1 C 100.887 4.1 102.037 4.2233 103.077 4.47 C 104.1103 4.7167 104.997 5.1067 105.737 5.64 C 106.477 6.1733 107.0503 6.85 107.457 7.67 C 107.8703 8.49 108.077 9.4867 108.077 10.66 C 108.077 12.3 107.7837 13.7233 107.197 14.93 C 106.6037 16.13 105.7903 17.12 104.757 17.9 C 103.717 18.68 102.4803 19.2533 101.047 19.62 C 99.607 19.9933 98.027 20.18 96.307 20.18 L 92.007 20.18 L 89.867 31 L 86.677 31 Z M 92.537 17.59 L 96.427 17.59 C 99.2203 17.59 101.3336 17.0433 102.767 15.95 C 104.2003 14.8567 104.917 13.23 104.917 11.07 C 104.917 9.5167 104.397 8.39 103.357 7.69 C 102.317 6.9967 100.8137 6.65 98.847 6.65 L 94.707 6.65 L 92.537 17.59 ZM 109.227 31 L 114.597 4.1 L 129.437 4.1 L 128.907 6.77 L 117.217 6.77 L 115.497 15.5 L 125.377 15.5 L 124.807 18.21 L 115.007 18.21 L 112.917 28.29 L 124.967 28.29 L 124.397 31 L 109.227 31 ZM 135.22 31 L 140.01 6.85 L 132.22 6.85 L 132.76 4.1 L 151.58 4.1 L 151.04 6.85 L 143.21 6.85 L 138.41 31 L 135.22 31 ZM 152.9699 19.19 L 155.9999 4.1 L 159.2 4.1 L 156.1299 19.48 C 155.8833 20.7067 155.7599 21.7867 155.7599 22.72 C 155.7599 24.66 156.1966 26.15 157.0699 27.19 C 157.9433 28.23 159.3233 28.75 161.2099 28.75 C 161.9766 28.75 162.7066 28.5967 163.3999 28.29 C 164.0999 27.99 164.7499 27.5133 165.3499 26.86 C 165.95 26.2 166.4766 25.36 166.9299 24.34 C 167.3833 23.3133 167.7599 22.0633 168.06 20.59 L 171.3799 4.1 L 174.4899 4.1 L 171.1299 20.71 C 170.7499 22.65 170.2366 24.3033 169.59 25.67 C 168.95 27.0367 168.1933 28.15 167.3199 29.01 C 166.4466 29.87 165.4833 30.5 164.4299 30.9 C 163.3766 31.2933 162.2499 31.49 161.0499 31.49 C 158.3166 31.49 156.2166 30.78 154.7499 29.36 C 153.2899 27.94 152.56 25.82 152.56 23 C 152.56 22.4267 152.5933 21.82 152.6599 21.18 C 152.7266 20.54 152.8299 19.8767 152.9699 19.19 ZM 174.6559 26.74 L 176.9959 24.97 C 177.7893 26.1767 178.7659 27.1133 179.9259 27.78 C 181.0859 28.4533 182.4193 28.79 183.9259 28.79 C 184.7459 28.79 185.5093 28.6667 186.2159 28.42 C 186.9293 28.1733 187.5393 27.83 188.0459 27.39 C 188.5526 26.9567 188.9559 26.4233 189.2559 25.79 C 189.5559 25.1633 189.7059 24.4667 189.7059 23.7 C 189.7059 22.72 189.3993 21.8933 188.7859 21.22 C 188.1659 20.5533 187.3526 19.9033 186.3459 19.27 L 183.2259 17.39 C 182.0793 16.6767 181.1026 15.83 180.2959 14.85 C 179.4893 13.8633 179.0859 12.6033 179.0859 11.07 C 179.0859 10.0633 179.2993 9.1067 179.7259 8.2 C 180.1459 7.3 180.7259 6.51 181.4659 5.83 C 182.2059 5.1433 183.0859 4.6033 184.1059 4.21 C 185.1326 3.81 186.2459 3.61 187.4459 3.61 C 189.0593 3.61 190.5226 3.9667 191.8359 4.68 C 193.1493 5.3867 194.2293 6.2867 195.0759 7.38 L 192.9859 9.27 C 192.2726 8.45 191.4459 7.76 190.5059 7.2 C 189.5593 6.64 188.4593 6.36 187.2059 6.36 C 186.4393 6.36 185.7559 6.4833 185.1559 6.73 C 184.5559 6.9767 184.0426 7.3033 183.6159 7.71 C 183.1893 8.1233 182.8693 8.59 182.6559 9.11 C 182.4359 9.6233 182.3259 10.1533 182.3259 10.7 C 182.3259 11.74 182.6593 12.5833 183.3259 13.23 C 183.9993 13.87 184.8259 14.49 185.8059 15.09 L 188.9259 16.94 C 190.2393 17.7 191.2426 18.5667 191.9359 19.54 C 192.6359 20.5133 192.9859 21.75 192.9859 23.25 C 192.9859 24.45 192.7526 25.5567 192.2859 26.57 C 191.8259 27.5833 191.1859 28.4533 190.3659 29.18 C 189.5393 29.9 188.5526 30.4667 187.4059 30.88 C 186.2593 31.2867 185.0026 31.49 183.6359 31.49 C 181.7759 31.49 180.0893 31.1 178.5759 30.32 C 177.0559 29.5467 175.7493 28.3533 174.6559 26.74 Z" transform="matrix(1, 0, 0, 1, 0, 0)" style="fill-opacity: 0.9; stroke-opacity: 0.5; stroke-width: 2px; white-space: pre;"/>
    <line x1="3" y1="34.1017" x2="194" y2="34.1017" style="stroke-linecap: round; stroke-width: 3; stroke: rgb(0, 0, 0); fill-opacity: 0.9; stroke-opacity: 0.5;"/>
    <line style="stroke-width: 3; stroke-linecap: round; stroke: rgb(0, 0, 0); fill-opacity: 0.9; stroke-opacity: 0.5;" x1="3" y1="9" x2="14" y2="9"/>
    <line style="stroke-width: 3; stroke-linecap: round; stroke: rgb(0, 0, 0); fill-opacity: 0.9; stroke-opacity: 0.5;" x1="3" y1="18" x2="14" y2="18" bx:origin="0 Infinity"/>
    <line style="stroke-width: 3; stroke-linecap: round; stroke: rgb(0, 0, 0); fill-opacity: 0.9; stroke-opacity: 0.5;" x1="3" y1="27" x2="14" y2="27" bx:origin="-1 -Infinity"/>
  </g>
</svg>