<?xml version="1.0" standalone="no"?>
<!DOCTYPE svg PUBLIC "-//W3C//DTD SVG 20010904//EN"
 "http://www.w3.org/TR/2001/REC-SVG-20010904/DTD/svg10.dtd">
<svg version="1.0" xmlns="http://www.w3.org/2000/svg"
 width="736.000000pt" height="736.000000pt" viewBox="0 0 736.000000 736.000000"
 preserveAspectRatio="xMidYMid meet">
<metadata>
Created by potrace 1.11, written by Peter Selinger 2001-2013
</metadata>
<g transform="translate(0.000000,736.000000) scale(0.100000,-0.100000)"
fill="#000000" stroke="none">
<path d="M4857 6304 c-1 -1 -40 -5 -87 -8 -90 -7 -122 -11 -210 -27 -30 -6
-68 -13 -85 -16 -16 -2 -61 -14 -100 -24 -38 -11 -78 -22 -88 -24 -26 -6 -190
-67 -202 -75 -5 -4 -23 -10 -40 -14 -16 -4 -32 -11 -35 -14 -3 -4 -44 -26 -92
-49 -132 -64 -245 -136 -393 -250 -77 -59 -225 -202 -306 -293 -80 -91 -159
-195 -159 -208 0 -6 -3 -12 -7 -14 -8 -3 -57 -73 -79 -113 -53 -95 -110 -206
-140 -276 -34 -80 -110 -300 -118 -344 -2 -11 -13 -67 -25 -125 -35 -185 -39
-222 -41 -425 -1 -144 4 -252 15 -305 3 -14 7 -45 10 -69 37 -305 207 -725
399 -986 76 -102 106 -140 162 -203 90 -99 119 -128 193 -192 35 -30 69 -60
75 -65 42 -39 205 -152 301 -208 56 -33 290 -144 330 -157 22 -7 46 -18 54
-24 8 -6 16 -10 18 -8 2 1 35 -7 74 -19 38 -12 114 -32 167 -44 53 -13 93 -24
87 -25 -5 -1 -968 -3 -2140 -4 -1922 -2 -2133 -3 -2166 -18 -97 -43 -152 -134
-144 -237 7 -96 54 -164 143 -204 l47 -21 3405 0 3406 0 56 27 c86 42 128 106
133 201 6 100 -41 180 -133 227 l-47 24 -852 0 c-469 0 -849 3 -845 6 4 3 61
18 127 34 66 15 126 32 133 38 6 5 12 7 12 3 0 -4 14 0 30 9 17 9 30 13 30 11
0 -13 341 140 348 157 2 4 9 7 16 7 28 0 285 179 395 275 48 41 199 193 240
241 69 80 201 264 237 329 88 162 182 367 200 435 2 8 15 53 29 100 14 47 28
96 30 110 5 26 11 58 20 100 3 14 8 41 11 60 4 19 8 44 10 55 22 118 22 531 1
630 -2 11 -8 42 -11 68 -13 84 -38 194 -68 292 -12 39 -22 72 -23 75 -1 3 -5
14 -9 25 -52 136 -79 197 -129 295 -243 475 -666 867 -1152 1070 -44 18 -94
39 -112 46 -17 8 -38 14 -46 14 -9 0 -18 4 -21 9 -3 5 -20 11 -38 14 -18 3
-76 17 -128 31 -52 15 -108 28 -125 31 -58 9 -90 14 -120 19 -82 13 -418 29
-428 20z m293 -488 c36 -3 75 -8 86 -10 12 -2 39 -7 60 -10 22 -4 47 -9 56
-12 17 -5 43 -11 88 -20 112 -23 398 -150 530 -236 36 -23 67 -44 70 -48 3 -3
32 -25 65 -50 143 -108 327 -314 427 -480 63 -104 102 -174 101 -180 0 -3 7
-21 18 -41 28 -55 95 -264 113 -354 73 -353 47 -716 -76 -1040 -17 -44 -34
-84 -39 -89 -5 -6 -9 -18 -9 -28 0 -10 -4 -18 -8 -18 -5 0 -9 -6 -9 -12 0 -17
-94 -177 -150 -258 -89 -126 -249 -299 -341 -367 -20 -15 -44 -34 -52 -42 -28
-27 -205 -137 -285 -178 -78 -39 -201 -91 -234 -98 -9 -2 -42 -13 -73 -24 -32
-11 -58 -18 -58 -16 0 1 -21 -3 -46 -11 -25 -7 -49 -13 -52 -13 -4 1 -9 0 -12
-1 -36 -14 -215 -31 -335 -33 -92 -1 -254 10 -277 18 -7 2 -31 6 -53 9 -83 10
-301 69 -319 87 -6 5 -18 9 -28 9 -10 0 -26 4 -36 10 -9 5 -57 28 -107 52
-252 118 -497 319 -663 543 -28 39 -56 75 -62 82 -5 7 -10 14 -10 17 0 3 -13
24 -29 48 -27 40 -110 193 -110 203 0 3 -7 18 -15 33 -22 44 -75 208 -97 301
-26 108 -25 104 -34 181 -4 36 -9 76 -11 90 -5 35 -5 267 0 315 17 152 26 202
62 334 45 167 98 288 198 456 296 498 831 834 1401 881 39 4 71 7 72 8 5 4
221 -2 283 -8z"/>
<path d="M248 5683 c-50 -14 -119 -73 -143 -121 -25 -52 -30 -123 -11 -177 23
-70 58 -110 123 -141 l57 -29 921 0 920 0 53 22 c55 22 101 64 130 118 17 33
26 162 11 171 -5 3 -9 12 -9 21 0 28 -68 100 -117 125 l-48 23 -922 1 c-715 0
-931 -3 -965 -13z"/>
<path d="M254 4245 c-104 -37 -159 -103 -171 -204 -13 -115 72 -234 184 -258
15 -3 435 -6 933 -7 729 0 914 2 953 13 26 8 47 18 47 22 0 5 6 9 14 9 15 0
63 56 86 99 15 29 22 158 9 167 -5 3 -9 14 -9 25 0 10 -4 19 -10 19 -5 0 -10
6 -10 13 0 19 -48 62 -100 89 l-45 23 -926 0 c-622 1 -936 -3 -955 -10z"/>
<path d="M248 2803 c-50 -14 -119 -73 -143 -121 -25 -52 -30 -123 -11 -177 23
-70 58 -110 123 -142 l58 -28 920 0 920 0 53 22 c55 22 101 64 130 118 17 33
26 162 11 171 -5 3 -9 12 -9 21 0 28 -68 100 -117 124 l-48 23 -922 1 c-717 1
-931 -2 -965 -12z"/>
</g>
</svg>
